<svg width="955" height="835" xmlns="http://www.w3.org/2000/svg" xml:space="preserve" version="1.1">

 <g>
  <title>Layer 1</title>
  <g id="svg_1">
   <g id="svg_2">
    <path id="svg_3" fill="#001a33" d="m297.7,117.14889c0,49.6 -40.2,117.6 -89.9,117.6c-49.6,0 -89.9,-67.9 -89.9,-117.6c0,-49.6 40.2,-89.9 89.9,-89.9c49.6,0 89.9,40.2 89.9,89.9z"/>
    <g id="svg_4">
     <path id="svg_5" fill="#001a33" d="m280.2,117.14889c0,2.2 -0.1,4.4 -0.2,6.5c-0.1,1.3 -0.3,8.6 -0.2,3.3c-0.1,4.5 -1.6,9.4 -2.7,13.8c-1.1,4.3 -2.4,8.5 -3.8,12.6c-0.7,2.1 -1.6,4.2 -2.4,6.3c-1.6,4.3 1.6,-3.4 -0.3,0.8c-0.7,1.4 -1.3,2.9 -2,4.3c-4.2,8.7 -9.3,16.9 -15,24.7c2.7,-3.6 -1.6,1.9 -2.2,2.6c-1.4,1.6 -2.9,3.3 -4.4,4.8c-1.6,1.7 -3.3,3.3 -5,4.9c-0.8,0.7 -1.6,1.4 -2.4,2.1c-0.4,0.3 -4.2,3.5 -2.1,1.8c2.2,-1.8 -1,0.7 -1.2,0.9c-1,0.7 -2,1.4 -3,2.1c-1.7,1.1 -3.4,2.1 -5.2,3.1c-1.1,0.6 -4.1,2.7 -5.3,2.6c0.7,-0.3 1.3,-0.6 2,-0.9c-0.7,0.3 -1.5,0.6 -2.2,0.8c-1.1,0.4 -2.2,0.8 -3.3,1.1c-1.9,0.5 -3.7,1 -5.6,1.4c-4.2,0.8 -0.1,-0.3 0.1,0.1c0,0 -2,0.2 -2.3,0.2c-2.3,0.1 -4.7,0.1 -7,0c-0.3,0 -2.3,-0.2 -2.3,-0.2c2.7,0.4 3.1,0.4 1.2,0.1c-0.8,-0.1 -1.5,-0.3 -2.3,-0.4c-1.9,-0.4 -3.8,-0.9 -5.6,-1.5c-0.7,-0.2 -1.5,-0.5 -2.2,-0.7c-0.4,-0.1 -0.7,-0.3 -1.1,-0.4c-1.8,-0.7 -1.5,-0.6 0.9,0.4c-1.2,0.1 -4.2,-2 -5.3,-2.6c-2.1,-1.2 -4.2,-2.4 -6.2,-3.8c-1.2,-0.8 -5.8,-4.4 -2.4,-1.6c-1.8,-1.5 -3.5,-2.9 -5.3,-4.5c-3.6,-3.4 -7.1,-7 -10.2,-10.8c-0.6,-0.7 -1.1,-1.4 -1.7,-2c-2.9,-3.4 2.1,3 -0.5,-0.7c-1.3,-1.8 -2.6,-3.6 -3.8,-5.5c-2.7,-4.1 -5.3,-8.4 -7.6,-12.8c-1.1,-2 -2.1,-4 -3,-6.1c-0.6,-1.2 -1.1,-2.5 -1.7,-3.7c-1.9,-4 0.9,2.4 -0.1,-0.2c-1.9,-4.8 -3.6,-9.6 -5.1,-14.5c-1.2,-4.2 -2.3,-8.4 -3.1,-12.6c-0.4,-2 -1,-4.2 -1,-6.2c0.1,4.9 0.1,0.8 0,-0.3c-0.1,-1.2 -0.2,-2.4 -0.3,-3.6c-0.3,-4.8 -0.2,-9.5 0.2,-14.3c0.1,-0.9 0.2,-1.8 0.3,-2.7c-0.5,4.6 0,0.1 0.2,-0.7c0.5,-2.6 1.1,-5.3 1.8,-7.9c0.6,-2.1 1.3,-4.3 2,-6.3c0.3,-0.8 2,-4.9 0.2,-0.7c0.4,-0.8 0.7,-1.6 1.1,-2.4c2,-4.4 4.4,-8.5 7.1,-12.5c0.7,-1.1 1.5,-2.1 2.3,-3.2c-2.3,3.2 -0.6,0.7 0.1,0c1.6,-1.8 3.1,-3.6 4.8,-5.3c1.5,-1.6 3.1,-3.1 4.7,-4.5c0.8,-0.7 1.7,-1.4 2.5,-2.1c3.4,-3 -1.8,1.1 1.1,-0.9c3.6,-2.5 7.2,-4.9 11.1,-6.9c1.9,-1 3.9,-2 5.9,-2.8c-4.2,1.8 0,0.1 0.7,-0.2c1.5,-0.5 2.9,-1 4.4,-1.5c2.4,-0.7 4.7,-1.3 7.1,-1.9c1.3,-0.3 8.1,-1.2 3.4,-0.7c5.1,-0.5 10.2,-0.8 15.3,-0.6c1.4,0.1 2.8,0.2 4.1,0.3c1.1,0.1 5.2,0.8 0.8,0c2.7,0.5 5.3,0.9 8,1.6c2.6,0.6 5.2,1.4 7.7,2.3c1.3,0.4 2.5,0.9 3.7,1.4c-2.7,-1 -1,-0.5 0.7,0.3c4.8,2.2 9.3,4.9 13.6,7.9c0.7,0.5 4.1,3.2 0.6,0.4c1,0.8 2,1.6 3,2.5c2,1.7 3.9,3.5 5.7,5.4c1.8,1.9 3.5,3.9 5.2,5.8c2.9,3.3 -2,-3 0.4,0.6c0.7,1.1 1.5,2.1 2.2,3.2c2.9,4.4 5.4,9 7.5,13.8c-1.8,-4.2 -0.1,0 0.2,0.7c0.5,1.3 0.9,2.5 1.3,3.8c0.9,2.8 1.6,5.6 2.2,8.4c0.2,1.1 0.4,2.2 0.6,3.3c0.7,3.6 -0.3,-3.3 0.2,1.4c0.2,3.3 0.4,6.3 0.4,9.3c0.1,9.2 8,17.9 17.5,17.5c9.4,-0.4 17.6,-7.7 17.5,-17.5c-0.4,-48.8 -34.4,-93.3 -82.3,-104.4c-47.5,-11 -99,11.7 -120.8,55.8c-21.1,42.8 -10.5,93.6 15.2,132.1c12.3,18.4 28.5,35.6 49.1,44.5c22,9.6 45.1,8.9 66.7,-1.7c22.3,-11 39.8,-31.8 51.6,-53.2c12.3,-22.2 20.4,-47.6 20.5,-73.1c0.1,-9.2 -8.1,-17.9 -17.5,-17.5c-9.5,0.4 -17.4,7.7 -17.5,17.5z"/>
    </g>
   </g>
   <g id="svg_6">
    <path id="svg_7" fill="#001a33" d="m388.3,369.04889l0,71.8l-361,0l0,-71.8c0,-51 41.6,-92.2 92.6,-92.2l21.6,0l66.6,80.9l66,-80.9l21.6,0c51,0 92.6,41.2 92.6,92.2z"/>
    <g id="svg_8">
     <path id="svg_9" fill="#001a33" d="m370.5,369.04889c0,24 0,47.9 0,71.9c5.8,-5.8 11.7,-11.7 17.5,-17.5c-11.9,0 -23.8,0 -35.8,0c-28.6,0 -57.3,0 -85.9,0c-34.7,0 -69.3,0 -104,0c-30.1,0 -60.2,0 -90.4,0c-14.5,0 -29.2,-0.8 -43.7,0c-0.2,0 -0.4,0 -0.6,0c5.8,5.8 11.7,11.7 17.5,17.5c0,-23 0,-46 0,-69c0,-1 0,-1.9 0,-2.9c0,-2.1 0.1,-4.2 0.2,-6.3c0.1,-1.1 0.2,-2.3 0.3,-3.4c0.2,-2 0.2,-1.8 -0.1,0.6c0.1,-0.9 0.3,-1.8 0.4,-2.7c0.9,-5.1 2.2,-10 4,-14.9c0.4,-1 0.8,-2.1 1.2,-3.1c-1.6,4.2 0,0.1 0.3,-0.7c1.3,-2.8 2.7,-5.5 4.3,-8.1c1.3,-2.2 2.8,-4.4 4.3,-6.5c0.5,-0.7 2,-2.6 -0.4,0.4c0.8,-1 1.6,-2 2.5,-3c3.7,-4.3 7.8,-8.2 12.1,-11.8c2.4,-2 0,0 -0.5,0.3c1.1,-0.8 2.1,-1.5 3.2,-2.3c2.2,-1.5 4.4,-2.8 6.7,-4.1c2.3,-1.3 4.7,-2.4 7,-3.6c4,-1.9 -3.5,1.2 0.7,-0.3c1.3,-0.4 2.5,-0.9 3.7,-1.3c3,-1 6,-1.8 9,-2.5c1.3,-0.3 2.6,-0.6 4,-0.8c0.9,-0.2 1.8,-0.3 2.7,-0.4c-2.4,0.3 -2.6,0.3 -0.6,0.1c3.9,-0.3 7.7,-0.5 11.6,-0.5c6.6,0 13.1,0 19.7,0c-4.1,-1.7 -8.2,-3.4 -12.4,-5.1c19.4,23.6 38.8,47.2 58.2,70.8c2.8,3.4 5.6,6.8 8.4,10.2c5.6,6.8 19.2,6.8 24.7,0c19.2,-23.5 38.4,-47.1 57.7,-70.6c2.8,-3.4 5.6,-6.8 8.4,-10.3c-4.1,1.7 -8.2,3.4 -12.4,5.1c6.5,0 12.9,0 19.4,0c3.7,0 7.5,0.1 11.2,0.4c0.6,0.1 3.6,0.4 1.1,0.1c-2.3,-0.3 0,0 0.4,0.1c1.3,0.2 2.7,0.5 4,0.7c3.1,0.6 6.1,1.4 9.1,2.4c1.3,0.4 2.5,0.8 3.8,1.3c0.6,0.2 1.2,0.5 1.9,0.7c2.4,0.7 -2.7,-1.4 -0.5,-0.2c2.5,1.3 5.1,2.4 7.6,3.8c2.5,1.4 4.9,2.9 7.2,4.5c0.5,0.4 3.8,2.6 1.9,1.3c-1.9,-1.4 0.3,0.3 0.8,0.6c0.7,0.6 1.3,1.1 2,1.7c4.3,3.7 8,7.9 11.7,12.2c1.3,1.5 -0.7,-0.9 -0.7,-1c0.5,0.7 1,1.4 1.5,2.1c0.7,1.1 1.5,2.2 2.2,3.3c1.6,2.6 3.2,5.2 4.5,8c0.7,1.4 1.3,2.8 2,4.2c0.9,1.8 -0.4,-1 -0.5,-1.1c0.4,1 0.8,2.1 1.2,3.1c1.1,2.9 2,5.9 2.7,8.9c0.4,1.7 0.8,3.5 1.1,5.3c0.3,1.6 0.6,5 0.3,1.4c0.3,3.6 0.6,7.3 0.6,11c0.1,9.2 8,17.9 17.5,17.5c9.4,-0.4 17.6,-7.7 17.5,-17.5c-0.2,-30 -12.5,-59.4 -34.5,-79.9c-20.9,-19.5 -48.1,-29.8 -76.6,-29.9c-8.9,0 -20.9,-1.9 -29.1,2.4c-3.9,2.1 -6.7,6.7 -9.5,10c-11.2,13.8 -22.5,27.5 -33.7,41.3c-8.8,10.8 -17.6,21.6 -26.4,32.4c8.2,0 16.5,0 24.7,0c-11.7,-14.3 -23.5,-28.5 -35.2,-42.8c-7.5,-9.2 -15.1,-18.3 -22.6,-27.5c-6.1,-7.4 -10.5,-15.2 -21.4,-15.8c-11.8,-0.7 -24.4,-0.4 -36.1,1.1c-20.7,2.8 -39.4,11.4 -55.7,24.5c-15.6,12.6 -26.9,30 -33.6,48.8c-4.5,12.8 -5.8,26.4 -5.8,39.9c0,22.5 0,44.9 0,67.4c0,9.5 8,17.5 17.5,17.5c11.9,0 23.8,0 35.8,0c28.6,0 57.3,0 85.9,0c34.7,0 69.3,0 104,0c30.1,0 60.2,0 90.4,0c14.5,0 29.2,0.5 43.7,0c0.2,0 0.4,0 0.6,0c9.5,0 17.5,-8 17.5,-17.5c0,-24 0,-47.9 0,-71.9c0,-9.2 -8,-17.9 -17.5,-17.5c-9.4,0.4 -17.4,7.7 -17.4,17.5z"/>
    </g>
   </g>
   <g id="svg_10">
    <path id="svg_11" fill="#001a33" d="m833.7,483.34889c0,49.6 -40.2,117.6 -89.9,117.6c-49.6,0 -89.9,-67.9 -89.9,-117.6c0,-49.6 40.2,-89.9 89.9,-89.9c49.6,0 89.9,40.2 89.9,89.9z"/>
    <g id="svg_12">
     <path id="svg_13" fill="#001a33" d="m816.2,483.34889c0,2.2 -0.1,4.4 -0.2,6.5c-0.1,1.3 -0.3,8.6 -0.2,3.3c-0.1,4.5 -1.6,9.4 -2.7,13.8c-1.1,4.3 -2.4,8.5 -3.8,12.6c-0.7,2.1 -1.6,4.2 -2.4,6.3c-1.6,4.3 1.6,-3.4 -0.3,0.8c-0.7,1.4 -1.3,2.9 -2,4.3c-4.2,8.7 -9.3,16.9 -15,24.7c2.7,-3.6 -1.6,1.9 -2.2,2.6c-1.4,1.6 -2.9,3.3 -4.4,4.8c-1.6,1.7 -3.3,3.3 -5,4.9c-0.8,0.7 -1.6,1.4 -2.4,2.1c-0.4,0.3 -4.2,3.5 -2.1,1.8c2.2,-1.8 -1,0.7 -1.2,0.9c-1,0.7 -2,1.4 -3,2.1c-1.7,1.1 -3.4,2.1 -5.2,3.1c-1.1,0.6 -4.1,2.7 -5.3,2.6c0.7,-0.3 1.3,-0.6 2,-0.9c-0.7,0.3 -1.5,0.6 -2.2,0.8c-1.1,0.4 -2.2,0.8 -3.3,1.1c-1.9,0.5 -3.7,1 -5.6,1.4c-4.2,0.8 -0.1,-0.3 0.1,0.1c0,0 -2,0.2 -2.3,0.2c-2.3,0.1 -4.7,0.1 -7,0c-0.3,0 -2.3,-0.2 -2.3,-0.2c2.7,0.4 3.1,0.4 1.2,0.1c-0.8,-0.1 -1.5,-0.3 -2.3,-0.4c-1.9,-0.4 -3.8,-0.9 -5.6,-1.5c-0.7,-0.2 -1.5,-0.5 -2.2,-0.7c-0.4,-0.1 -0.7,-0.3 -1.1,-0.4c-1.8,-0.7 -1.5,-0.6 0.9,0.4c-1.2,0.1 -4.2,-2 -5.3,-2.6c-2.1,-1.2 -4.2,-2.4 -6.2,-3.8c-1.2,-0.8 -5.8,-4.4 -2.4,-1.6c-1.8,-1.5 -3.5,-2.9 -5.3,-4.5c-3.6,-3.4 -7.1,-7 -10.2,-10.8c-0.6,-0.7 -1.1,-1.4 -1.7,-2c-2.9,-3.4 2.1,3 -0.5,-0.7c-1.3,-1.8 -2.6,-3.6 -3.8,-5.5c-2.7,-4.1 -5.3,-8.4 -7.6,-12.8c-1.1,-2 -2.1,-4 -3,-6.1c-0.6,-1.2 -1.1,-2.5 -1.7,-3.7c-1.9,-4 0.9,2.4 -0.1,-0.2c-1.9,-4.8 -3.6,-9.6 -5.1,-14.5c-1.2,-4.2 -2.3,-8.4 -3.1,-12.6c-0.4,-2 -1,-4.2 -1,-6.2c0.1,4.9 0.1,0.8 0,-0.3c-0.1,-1.2 -0.2,-2.4 -0.3,-3.6c-0.3,-4.8 -0.2,-9.5 0.2,-14.3c0.1,-0.9 0.2,-1.8 0.3,-2.7c-0.5,4.6 0,0.1 0.2,-0.7c0.5,-2.6 1.1,-5.3 1.8,-7.9c0.6,-2.1 1.3,-4.3 2,-6.3c0.3,-0.8 2,-4.9 0.2,-0.7c0.4,-0.8 0.7,-1.6 1.1,-2.4c2,-4.4 4.4,-8.5 7.1,-12.5c0.7,-1.1 1.5,-2.1 2.3,-3.2c-2.3,3.2 -0.6,0.7 0.1,0c1.6,-1.8 3.1,-3.6 4.8,-5.3c1.5,-1.6 3.1,-3.1 4.7,-4.5c0.8,-0.7 1.7,-1.4 2.5,-2.1c3.4,-3 -1.8,1.1 1.1,-0.9c3.6,-2.5 7.2,-4.9 11.1,-6.9c1.9,-1 3.9,-2 5.9,-2.8c-4.2,1.8 0,0.1 0.7,-0.2c1.5,-0.5 2.9,-1 4.4,-1.5c2.4,-0.7 4.7,-1.3 7.1,-1.9c1.3,-0.3 8.1,-1.2 3.4,-0.7c5.1,-0.5 10.2,-0.8 15.3,-0.6c1.4,0.1 2.8,0.2 4.1,0.3c1.1,0.1 5.2,0.8 0.8,0c2.7,0.5 5.3,0.9 8,1.6c2.6,0.6 5.2,1.4 7.7,2.3c1.3,0.4 2.5,0.9 3.7,1.4c-2.7,-1 -1,-0.5 0.7,0.3c4.8,2.2 9.3,4.9 13.6,7.9c0.7,0.5 4.1,3.2 0.6,0.4c1,0.8 2,1.6 3,2.5c2,1.7 3.9,3.5 5.7,5.4c1.8,1.9 3.5,3.9 5.2,5.8c2.9,3.3 -2,-3 0.4,0.6c0.7,1.1 1.5,2.1 2.2,3.2c2.9,4.4 5.4,9 7.5,13.8c-1.8,-4.2 -0.1,0 0.2,0.7c0.5,1.3 0.9,2.5 1.3,3.8c0.9,2.8 1.6,5.6 2.2,8.4c0.2,1.1 0.4,2.2 0.6,3.3c0.7,3.6 -0.3,-3.3 0.2,1.4c0.2,3.3 0.4,6.3 0.4,9.3c0.1,9.2 8,17.9 17.5,17.5c9.4,-0.4 17.6,-7.7 17.5,-17.5c-0.4,-48.8 -34.4,-93.3 -82.3,-104.4c-47.5,-11 -99,11.7 -120.8,55.8c-21.1,42.8 -10.5,93.6 15.2,132.1c12.3,18.4 28.5,35.6 49.1,44.5c22,9.6 45.1,8.9 66.7,-1.7c22.3,-11 39.8,-31.8 51.6,-53.2c12.3,-22.2 20.4,-47.6 20.5,-73.1c0.1,-9.2 -8.1,-17.9 -17.5,-17.5c-9.5,0.4 -17.4,7.7 -17.5,17.5z"/>
    </g>
   </g>
   <g id="svg_14">
    <path id="svg_15" fill="#001a33" d="m924.3,735.24889l0,71.6l-361,0l0,-71.6c0,-51 41.6,-92.4 92.6,-92.4l21.6,0l66.6,80.9l66,-80.9l21.6,0c51,0 92.6,41.4 92.6,92.4z"/>
    <g id="svg_16">
     <path id="svg_17" fill="#001a33" d="m906.5,735.24889c0,24 0,47.9 0,71.9c5.8,-5.8 11.7,-11.7 17.5,-17.5c-11.9,0 -23.8,0 -35.8,0c-28.6,0 -57.3,0 -85.9,0c-34.7,0 -69.3,0 -104,0c-30.1,0 -60.2,0 -90.4,0c-14.5,0 -29.2,-0.8 -43.7,0c-0.2,0 -0.4,0 -0.6,0c5.8,5.8 11.7,11.7 17.5,17.5c0,-23 0,-46 0,-69c0,-1 0,-1.9 0,-2.9c0,-2.1 0.1,-4.2 0.2,-6.3c0.1,-1.1 0.2,-2.3 0.3,-3.4c0.2,-2 0.2,-1.8 -0.1,0.6c0.1,-0.9 0.3,-1.8 0.4,-2.7c0.9,-5.1 2.2,-10 4,-14.9c0.4,-1 0.8,-2.1 1.2,-3.1c-1.6,4.2 0,0.1 0.3,-0.7c1.3,-2.8 2.7,-5.5 4.3,-8.1c1.3,-2.2 2.8,-4.4 4.3,-6.5c0.5,-0.7 2,-2.6 -0.4,0.4c0.8,-1 1.6,-2 2.5,-3c3.7,-4.3 7.8,-8.2 12.1,-11.8c2.4,-2 0,0 -0.5,0.3c1.1,-0.8 2.1,-1.5 3.2,-2.3c2.2,-1.5 4.4,-2.8 6.7,-4.1c2.3,-1.3 4.7,-2.4 7,-3.6c4,-1.9 -3.5,1.2 0.7,-0.3c1.3,-0.4 2.5,-0.9 3.7,-1.3c3,-1 6,-1.8 9,-2.5c1.3,-0.3 2.6,-0.6 4,-0.8c0.9,-0.2 1.8,-0.3 2.7,-0.4c-2.4,0.3 -2.6,0.3 -0.6,0.1c3.9,-0.3 7.7,-0.5 11.6,-0.5c6.6,0 13.1,0 19.7,0c-4.1,-1.7 -8.2,-3.4 -12.4,-5.1c19.4,23.6 38.8,47.2 58.2,70.8c2.8,3.4 5.6,6.8 8.4,10.2c5.6,6.8 19.2,6.8 24.7,0c19.2,-23.5 38.4,-47.1 57.7,-70.6c2.8,-3.4 5.6,-6.8 8.4,-10.3c-4.1,1.7 -8.2,3.4 -12.4,5.1c6.5,0 12.9,0 19.4,0c3.7,0 7.5,0.1 11.2,0.4c0.6,0.1 3.6,0.4 1.1,0.1c-2.3,-0.3 0,0 0.4,0.1c1.3,0.2 2.7,0.5 4,0.7c3.1,0.6 6.1,1.4 9.1,2.4c1.3,0.4 2.5,0.8 3.8,1.3c0.6,0.2 1.2,0.5 1.9,0.7c2.4,0.7 -2.7,-1.4 -0.5,-0.2c2.5,1.3 5.1,2.4 7.6,3.8c2.5,1.4 4.9,2.9 7.2,4.5c0.5,0.4 3.8,2.6 1.9,1.3c-1.9,-1.4 0.3,0.3 0.8,0.6c0.7,0.6 1.3,1.1 2,1.7c4.3,3.7 8,7.9 11.7,12.2c1.3,1.5 -0.7,-0.9 -0.7,-1c0.5,0.7 1,1.4 1.5,2.1c0.7,1.1 1.5,2.2 2.2,3.3c1.6,2.6 3.2,5.2 4.5,8c0.7,1.4 1.3,2.8 2,4.2c0.9,1.8 -0.4,-1 -0.5,-1.1c0.4,1 0.8,2.1 1.2,3.1c1.1,2.9 2,5.9 2.7,8.9c0.4,1.7 0.8,3.5 1.1,5.3c0.3,1.6 0.6,5 0.3,1.4c0.3,3.6 0.6,7.3 0.6,11c0.1,9.2 8,17.9 17.5,17.5c9.4,-0.4 17.6,-7.7 17.5,-17.5c-0.2,-30 -12.5,-59.4 -34.5,-79.9c-20.9,-19.5 -48.1,-29.8 -76.6,-29.9c-8.9,0 -20.9,-1.9 -29.1,2.4c-3.9,2.1 -6.7,6.7 -9.5,10c-11.2,13.8 -22.5,27.5 -33.7,41.3c-8.8,10.8 -17.6,21.6 -26.4,32.4c8.2,0 16.5,0 24.7,0c-11.7,-14.3 -23.5,-28.5 -35.2,-42.8c-7.5,-9.2 -15.1,-18.3 -22.6,-27.5c-6.1,-7.4 -10.5,-15.2 -21.4,-15.8c-11.8,-0.7 -24.4,-0.4 -36.1,1.1c-20.7,2.8 -39.4,11.4 -55.7,24.5c-15.6,12.6 -26.9,30 -33.6,48.8c-4.5,12.8 -5.8,26.4 -5.8,39.9c0,22.5 0,44.9 0,67.4c0,9.5 8,17.5 17.5,17.5c11.9,0 23.8,0 35.8,0c28.6,0 57.3,0 85.9,0c34.7,0 69.3,0 104,0c30.1,0 60.2,0 90.4,0c14.5,0 29.2,0.5 43.7,0c0.2,0 0.4,0 0.6,0c9.5,0 17.5,-8 17.5,-17.5c0,-24 0,-47.9 0,-71.9c0,-9.2 -8,-17.9 -17.5,-17.5c-9.4,0.4 -17.4,7.7 -17.4,17.5z"/>
    </g>
   </g>
   <g id="svg_18">
    <g id="svg_19">
     <path id="svg_20" fill="#001a33" d="m415.6,134.64889c37.1,0 74.2,0 111.4,0c59.1,0 118.1,0 177.2,0c13.4,0 26.9,0 40.3,0c-8.2,-8.2 -16.3,-16.3 -24.5,-24.5c0,22.9 0,45.9 0,68.8c0,36.4 0,72.8 0,109.3c0,8.4 0,16.9 0,25.3c0,12.8 11.3,25.1 24.5,24.5c13.3,-0.6 24.5,-10.8 24.5,-24.5c0,-22.9 0,-45.9 0,-68.8c0,-36.4 0,-72.8 0,-109.3c0,-8.4 0,-16.9 0,-25.3c0,-13.2 -11.2,-24.5 -24.5,-24.5c-37.1,0 -74.2,0 -111.4,0c-59.1,0 -118.1,0 -177.2,0c-13.4,0 -26.9,0 -40.3,0c-12.8,0 -25.1,11.3 -24.5,24.5c0.6,13.3 10.7,24.5 24.5,24.5l0,0z"/>
    </g>
   </g>
   <g id="svg_21">
    <g id="svg_22">
     <path id="svg_23" fill="#001a33" d="m186.8,520.14889c0,24 0,47.9 0,71.9c0,38.4 0,76.8 0,115.2c0,8.8 0,17.6 0,26.4c0,13.2 11.2,24.5 24.5,24.5c30.4,0 60.8,0 91.2,0c48.1,0 96.2,0 144.3,0c11.1,0 22.3,0 33.4,0c12.8,0 25.1,-11.3 24.5,-24.5c-0.6,-13.3 -10.8,-24.5 -24.5,-24.5c-30.4,0 -60.8,0 -91.2,0c-48.1,0 -96.2,0 -144.3,0c-11.1,0 -22.3,0 -33.4,0c8.2,8.2 16.3,16.3 24.5,24.5c0,-24 0,-47.9 0,-71.9c0,-38.4 0,-76.8 0,-115.2c0,-8.8 0,-17.6 0,-26.4c0,-12.8 -11.3,-25.1 -24.5,-24.5c-13.3,0.6 -24.5,10.8 -24.5,24.5l0,0z"/>
    </g>
   </g>
   <g id="svg_24">
    <g id="svg_25">
     <path id="svg_26" fill="#001a33" d="m410.9,697.74889c17.3,17.5 34.6,35 51.9,52.6c0,-11.5 0,-23.1 0,-34.6c-17.3,17.1 -34.6,34.2 -51.9,51.3c-9.1,9 -9.7,25.7 0,34.6c9.8,9 24.9,9.6 34.6,0c17.3,-17.1 34.6,-34.2 51.9,-51.3c9.5,-9.3 9.3,-25.3 0,-34.6c-17.3,-17.5 -34.6,-35 -51.9,-52.6c-9,-9.1 -25.7,-9.7 -34.6,0c-9,9.8 -9.6,24.9 0,34.6l0,0z"/>
    </g>
   </g>
   <g id="svg_27">
    <g id="svg_28">
     <path id="svg_29" fill="#001a33" d="m450.2,39.74889c-17.3,17.5 -34.6,35 -51.9,52.6c-9.3,9.4 -9.5,25.3 0,34.6c17.3,17.1 34.6,34.2 51.9,51.3c9.1,9 25.7,9.8 34.6,0c8.9,-9.7 9.7,-25 0,-34.6c-17.3,-17.1 -34.6,-34.2 -51.9,-51.3c0,11.5 0,23.1 0,34.6c17.3,-17.5 34.6,-35 51.9,-52.6c9,-9.1 9.8,-25.7 0,-34.6c-9.7,-9 -25,-9.8 -34.6,0l0,0z"/>
    </g>
   </g>
  </g>
 </g>
</svg>