<?xml version="1.0" encoding="utf-8"?>
<!-- Generator: Adobe Illustrator 24.3.0, SVG Export Plug-In . SVG Version: 6.00 Build 0)  -->
<svg version="1.1" id="Layer_1" xmlns="http://www.w3.org/2000/svg" xmlns:xlink="http://www.w3.org/1999/xlink" x="0px" y="0px"
	 viewBox="0 0 300 300" enable-background="new 0 0 300 300" xml:space="preserve">
<g>
	<path fill="#001a33" d="M221.615,93.924c0,0,0-0.001,0.001-0.001l-39.891-39.891c-0.938-0.938-2.232-1.518-3.662-1.518H82.045
		c-2.858,0-5.178,2.318-5.178,5.178v184.616c0,2.86,2.319,5.177,5.178,5.177h135.909c2.86,0,5.178-2.316,5.178-5.177V97.584
		C223.132,96.26,222.596,94.913,221.615,93.924z M212.777,237.131H87.222V62.87h88.698l29.537,29.537h-22.217V81.588
		c0-2.859-2.318-5.177-5.178-5.177c-2.86,0-5.176,2.317-5.176,5.177v15.996c0,2.86,2.315,5.177,5.176,5.177
		c0,0,23.921,0,34.714,0.001V237.131z"/>
	<path fill="#001a33" d="M122.876,104.546l-10.317,10.317l-1.475-1.475c-2.024-2.021-5.3-2.021-7.323,0c-2.023,2.022-2.023,5.301,0,7.322
		l5.137,5.136c0.971,0.972,2.287,1.517,3.661,1.517c1.372,0,2.69-0.545,3.66-1.517l13.979-13.979c2.021-2.021,2.021-5.3,0-7.321
		C128.175,102.526,124.897,102.524,122.876,104.546z"/>
	<path fill="#001a33" d="M190.86,127.364h1.721c2.858,0,5.178-2.318,5.178-5.177c0-2.86-2.319-5.179-5.178-5.179h-1.721
		c-2.86,0-5.178,2.318-5.178,5.179C185.682,125.045,187.999,127.364,190.86,127.364z"/>
	<path fill="#001a33" d="M141.559,117.008c-2.86,0-5.18,2.318-5.18,5.179c0,2.858,2.319,5.177,5.18,5.177h33.552c2.86,0,5.178-2.318,5.178-5.177
		c0-2.86-2.317-5.179-5.178-5.179H141.559z"/>
	<path fill="#001a33" d="M190.86,159.204h1.721c2.858,0,5.178-2.318,5.178-5.179c0-2.859-2.319-5.176-5.178-5.176h-1.721
		c-2.86,0-5.178,2.316-5.178,5.176C185.682,156.886,187.999,159.204,190.86,159.204z"/>
	<path fill="#001a33" d="M175.111,148.85h-33.552c-2.86,0-5.18,2.316-5.18,5.176c0,2.86,2.319,5.179,5.18,5.179h33.552
		c2.86,0,5.178-2.318,5.178-5.179C180.289,151.166,177.971,148.85,175.111,148.85z"/>
	<path fill="#001a33" d="M190.86,191.045h1.721c2.858,0,5.178-2.318,5.178-5.179c0-2.858-2.319-5.177-5.178-5.177h-1.721
		c-2.86,0-5.178,2.318-5.178,5.177C185.682,188.727,187.999,191.045,190.86,191.045z"/>
	<path fill="#001a33" d="M175.111,180.69h-33.552c-2.86,0-5.18,2.318-5.18,5.177c0,2.86,2.319,5.179,5.18,5.179h33.552
		c2.86,0,5.178-2.318,5.178-5.179C180.289,183.008,177.971,180.69,175.111,180.69z"/>
	<path fill="#001a33" d="M190.86,222.885h1.721c2.858,0,5.178-2.318,5.178-5.178c0-2.859-2.319-5.177-5.178-5.177h-1.721
		c-2.86,0-5.178,2.317-5.178,5.177C185.682,220.567,187.999,222.885,190.86,222.885z"/>
	<path fill="#001a33" d="M175.111,212.531h-33.552c-2.86,0-5.18,2.317-5.18,5.177c0,2.859,2.319,5.178,5.18,5.178h33.552
		c2.86,0,5.178-2.318,5.178-5.178C180.289,214.848,177.971,212.531,175.111,212.531z"/>
	<path fill="#001a33" d="M112.558,159.204c1.372,0,2.69-0.546,3.66-1.517l13.979-13.979c2.021-2.022,2.021-5.301,0-7.322
		c-2.021-2.021-5.3-2.021-7.321,0l-10.317,10.317l-1.475-1.475c-2.022-2.022-5.3-2.022-7.323,0c-2.023,2.021-2.023,5.3,0,7.321
		l5.137,5.137C109.868,158.658,111.184,159.204,112.558,159.204z"/>
	<path fill="#001a33" d="M107.089,178.878l-3.329,3.329c-2.021,2.021-2.021,5.299,0,7.322c1.012,1.01,2.335,1.516,3.662,1.516
		c1.324,0,2.651-0.506,3.661-1.516l3.327-3.33l3.329,3.33c1.01,1.01,2.335,1.516,3.661,1.516c1.325,0,2.65-0.506,3.66-1.516
		c2.023-2.023,2.023-5.301,0-7.322l-3.329-3.329l3.329-3.329c2.023-2.021,2.023-5.3,0-7.321c-2.021-2.022-5.3-2.022-7.323,0
		l-3.327,3.327l-3.327-3.327c-2.024-2.022-5.3-2.022-7.323,0c-2.023,2.021-2.023,5.3,0,7.321L107.089,178.878z"/>
	<path fill="#001a33" d="M122.876,200.067l-10.317,10.318l-1.475-1.474c-2.024-2.023-5.3-2.023-7.323,0c-2.023,2.02-2.023,5.3,0,7.322l5.137,5.136
		c0.971,0.971,2.287,1.516,3.661,1.516c1.372,0,2.69-0.545,3.66-1.516l13.979-13.98c2.021-2.023,2.021-5.301,0-7.323
		C128.175,198.045,124.897,198.045,122.876,200.067z"/>
</g>
</svg>
