<svg width="28" height="32" xmlns="http://www.w3.org/2000/svg" fill="none">

 <g>
  <title>Layer 1</title>
  <path stroke="null" id="svg_1" fill="#001a33" d="m23.12499,7l-6.12499,0l0,2l6.12499,0l0,-2z"/>
  <path stroke="null" id="svg_2" fill="#001a33" d="m10,10l0,2l13.62499,0l0,-2l-13.62499,0z"/>
  <path stroke="null" id="svg_3" fill="#001a33" d="m10,13l13.62499,0l0,2l-13.62499,0l0,-2z"/>
  <path stroke="null" id="svg_4" fill="#001a33" d="m10,19l0,2l13.49999,0l0,-2l-13.49999,0z"/>
  <path stroke="null" id="svg_5" fill="#001a33" d="m10,16l13.62499,0l0,2l-13.62499,0l0,-2z"/>
  <path stroke="null" id="svg_6" fill="#001a33" d="m23.37499,22l-10.37499,0l0,2l10.37499,0l0,-2z"/>
  <path stroke="null" id="svg_7" fill="#001a33" d="m5.3125,0c-1.76041,0 -3.1875,1.34315 -3.1875,3l0,4l-1.0625,0c-0.58681,0 -1.0625,0.44772 -1.0625,1c0,0.55228 0.47569,1 1.0625,1l1.0625,0l0,6l-1.0625,0c-0.58681,0 -1.0625,0.4477 -1.0625,1c0,0.5523 0.47569,1 1.0625,1l1.0625,0l0,6l-1.0625,0c-0.58681,0 -1.0625,0.4477 -1.0625,1c0,0.5523 0.47569,1 1.0625,1l1.0625,0l0,4c0,1.6569 1.42709,3 3.1875,3l19.12499,0c1.76046,0 3.1875,-1.3431 3.1875,-3l0,-26c0,-1.65685 -1.42704,-3 -3.1875,-3l-19.12499,0zm-1.0625,25l0,4c0,0.5523 0.47569,1 1.0625,1l19.12499,0c0.58682,0 1.0625,-0.4477 1.0625,-1l0,-26c0,-0.55228 -0.47568,-1 -1.0625,-1l-19.12499,0c-0.58681,0 -1.0625,0.44772 -1.0625,1l0,4l1.0625,0c0.09163,0 0.18054,0.01092 0.26537,0.03144c0.36243,-0.6151 1.05937,-1.03144 1.85963,-1.03144c1.17361,0 2.125,0.89543 2.125,2c0,1.10457 -0.95139,2 -2.125,2c-0.80026,0 -1.4972,-0.41634 -1.85963,-1.03144c-0.08483,0.02052 -0.17374,0.03144 -0.26537,0.03144l-1.0625,0l0,6l1.0625,0c0.09163,0 0.18054,0.0109 0.26537,0.0314c0.36243,-0.6151 1.05937,-1.0314 1.85963,-1.0314c1.17361,0 2.125,0.8954 2.125,2c0,1.1046 -0.95139,2 -2.125,2c-0.80026,0 -1.4972,-0.4163 -1.85963,-1.0314c-0.08483,0.0205 -0.17374,0.0314 -0.26537,0.0314l-1.0625,0l0,6l1.0625,0c0.09163,0 0.18054,0.0109 0.26537,0.0314c0.36243,-0.6151 1.05937,-1.0314 1.85963,-1.0314c1.17361,0 2.125,0.8954 2.125,2c0,1.1046 -0.95139,2 -2.125,2c-0.80026,0 -1.4972,-0.4163 -1.85963,-1.0314c-0.08483,0.0205 -0.17374,0.0314 -0.26537,0.0314l-1.0625,0z" clip-rule="evenodd" fill-rule="evenodd"/>
  <path id="svg_8" fill="#001a33" d="m30,10l0,21c0,0.5523 -0.4477,1 -1,1c-0.5523,0 -1,-0.4477 -1,-1l0,-21l1,-2l1,2z"/>
 </g>
</svg>